<mxfile host="app.diagrams.net" agent="Mozilla/5.0 (Windows NT 10.0; Win64; x64) AppleWebKit/537.36 (KHTML, like Gecko) Chrome/137.0.0.0 Safari/537.36" version="27.1.6">
  <diagram name="Página-1" id="pk5ilzLYZdoNiBjxBn_y">
    <mxGraphModel dx="2253" dy="1926" grid="1" gridSize="10" guides="1" tooltips="1" connect="1" arrows="1" fold="1" page="1" pageScale="1" pageWidth="827" pageHeight="1169" math="0" shadow="0">
      <root>
        <mxCell id="0" />
        <mxCell id="1" parent="0" />
        <mxCell id="dPE6dNKuwwYWv2fvzeOf-7" value="Cliente" style="swimlane;fontStyle=0;childLayout=stackLayout;horizontal=1;startSize=30;horizontalStack=0;resizeParent=1;resizeParentMax=0;resizeLast=0;collapsible=1;marginBottom=0;whiteSpace=wrap;html=1;" parent="1" vertex="1">
          <mxGeometry x="320" y="30" width="140" height="300" as="geometry" />
        </mxCell>
        <mxCell id="dPE6dNKuwwYWv2fvzeOf-8" value="-Nombre" style="text;strokeColor=none;fillColor=none;align=left;verticalAlign=middle;spacingLeft=4;spacingRight=4;overflow=hidden;points=[[0,0.5],[1,0.5]];portConstraint=eastwest;rotatable=0;whiteSpace=wrap;html=1;" parent="dPE6dNKuwwYWv2fvzeOf-7" vertex="1">
          <mxGeometry y="30" width="140" height="30" as="geometry" />
        </mxCell>
        <mxCell id="dPE6dNKuwwYWv2fvzeOf-9" value="-Email" style="text;strokeColor=none;fillColor=none;align=left;verticalAlign=middle;spacingLeft=4;spacingRight=4;overflow=hidden;points=[[0,0.5],[1,0.5]];portConstraint=eastwest;rotatable=0;whiteSpace=wrap;html=1;" parent="dPE6dNKuwwYWv2fvzeOf-7" vertex="1">
          <mxGeometry y="60" width="140" height="30" as="geometry" />
        </mxCell>
        <mxCell id="dPE6dNKuwwYWv2fvzeOf-10" value="-Contraseña" style="text;strokeColor=none;fillColor=none;align=left;verticalAlign=middle;spacingLeft=4;spacingRight=4;overflow=hidden;points=[[0,0.5],[1,0.5]];portConstraint=eastwest;rotatable=0;whiteSpace=wrap;html=1;" parent="dPE6dNKuwwYWv2fvzeOf-7" vertex="1">
          <mxGeometry y="90" width="140" height="30" as="geometry" />
        </mxCell>
        <mxCell id="dPE6dNKuwwYWv2fvzeOf-21" value="-Rut" style="text;strokeColor=none;fillColor=none;align=left;verticalAlign=middle;spacingLeft=4;spacingRight=4;overflow=hidden;points=[[0,0.5],[1,0.5]];portConstraint=eastwest;rotatable=0;whiteSpace=wrap;html=1;" parent="dPE6dNKuwwYWv2fvzeOf-7" vertex="1">
          <mxGeometry y="120" width="140" height="30" as="geometry" />
        </mxCell>
        <mxCell id="dPE6dNKuwwYWv2fvzeOf-23" value="-Edad" style="text;strokeColor=none;fillColor=none;align=left;verticalAlign=middle;spacingLeft=4;spacingRight=4;overflow=hidden;points=[[0,0.5],[1,0.5]];portConstraint=eastwest;rotatable=0;whiteSpace=wrap;html=1;" parent="dPE6dNKuwwYWv2fvzeOf-7" vertex="1">
          <mxGeometry y="150" width="140" height="30" as="geometry" />
        </mxCell>
        <mxCell id="dPE6dNKuwwYWv2fvzeOf-22" value="-Telefono" style="text;strokeColor=none;fillColor=none;align=left;verticalAlign=middle;spacingLeft=4;spacingRight=4;overflow=hidden;points=[[0,0.5],[1,0.5]];portConstraint=eastwest;rotatable=0;whiteSpace=wrap;html=1;" parent="dPE6dNKuwwYWv2fvzeOf-7" vertex="1">
          <mxGeometry y="180" width="140" height="30" as="geometry" />
        </mxCell>
        <mxCell id="dPE6dNKuwwYWv2fvzeOf-65" value="+CrearCliente" style="text;strokeColor=none;fillColor=none;align=left;verticalAlign=middle;spacingLeft=4;spacingRight=4;overflow=hidden;points=[[0,0.5],[1,0.5]];portConstraint=eastwest;rotatable=0;whiteSpace=wrap;html=1;" parent="dPE6dNKuwwYWv2fvzeOf-7" vertex="1">
          <mxGeometry y="210" width="140" height="30" as="geometry" />
        </mxCell>
        <mxCell id="dPE6dNKuwwYWv2fvzeOf-67" value="+ModificarCliente" style="text;strokeColor=none;fillColor=none;align=left;verticalAlign=middle;spacingLeft=4;spacingRight=4;overflow=hidden;points=[[0,0.5],[1,0.5]];portConstraint=eastwest;rotatable=0;whiteSpace=wrap;html=1;" parent="dPE6dNKuwwYWv2fvzeOf-7" vertex="1">
          <mxGeometry y="240" width="140" height="30" as="geometry" />
        </mxCell>
        <mxCell id="dPE6dNKuwwYWv2fvzeOf-66" value="+EliminarCliente" style="text;strokeColor=none;fillColor=none;align=left;verticalAlign=middle;spacingLeft=4;spacingRight=4;overflow=hidden;points=[[0,0.5],[1,0.5]];portConstraint=eastwest;rotatable=0;whiteSpace=wrap;html=1;" parent="dPE6dNKuwwYWv2fvzeOf-7" vertex="1">
          <mxGeometry y="270" width="140" height="30" as="geometry" />
        </mxCell>
        <mxCell id="dPE6dNKuwwYWv2fvzeOf-25" value="Cita" style="swimlane;fontStyle=0;childLayout=stackLayout;horizontal=1;startSize=30;horizontalStack=0;resizeParent=1;resizeParentMax=0;resizeLast=0;collapsible=1;marginBottom=0;whiteSpace=wrap;html=1;" parent="1" vertex="1">
          <mxGeometry x="290" y="835" width="160" height="330" as="geometry" />
        </mxCell>
        <mxCell id="dPE6dNKuwwYWv2fvzeOf-26" value="-Fecha" style="text;strokeColor=none;fillColor=none;align=left;verticalAlign=middle;spacingLeft=4;spacingRight=4;overflow=hidden;points=[[0,0.5],[1,0.5]];portConstraint=eastwest;rotatable=0;whiteSpace=wrap;html=1;" parent="dPE6dNKuwwYWv2fvzeOf-25" vertex="1">
          <mxGeometry y="30" width="160" height="30" as="geometry" />
        </mxCell>
        <mxCell id="dPE6dNKuwwYWv2fvzeOf-27" value="-Hora" style="text;strokeColor=none;fillColor=none;align=left;verticalAlign=middle;spacingLeft=4;spacingRight=4;overflow=hidden;points=[[0,0.5],[1,0.5]];portConstraint=eastwest;rotatable=0;whiteSpace=wrap;html=1;" parent="dPE6dNKuwwYWv2fvzeOf-25" vertex="1">
          <mxGeometry y="60" width="160" height="30" as="geometry" />
        </mxCell>
        <mxCell id="dPE6dNKuwwYWv2fvzeOf-28" value="-Estado" style="text;strokeColor=none;fillColor=none;align=left;verticalAlign=middle;spacingLeft=4;spacingRight=4;overflow=hidden;points=[[0,0.5],[1,0.5]];portConstraint=eastwest;rotatable=0;whiteSpace=wrap;html=1;" parent="dPE6dNKuwwYWv2fvzeOf-25" vertex="1">
          <mxGeometry y="90" width="160" height="30" as="geometry" />
        </mxCell>
        <mxCell id="dPE6dNKuwwYWv2fvzeOf-29" value="-Tipo" style="text;strokeColor=none;fillColor=none;align=left;verticalAlign=middle;spacingLeft=4;spacingRight=4;overflow=hidden;points=[[0,0.5],[1,0.5]];portConstraint=eastwest;rotatable=0;whiteSpace=wrap;html=1;" parent="dPE6dNKuwwYWv2fvzeOf-25" vertex="1">
          <mxGeometry y="120" width="160" height="30" as="geometry" />
        </mxCell>
        <mxCell id="dPE6dNKuwwYWv2fvzeOf-30" value="-Motivo" style="text;strokeColor=none;fillColor=none;align=left;verticalAlign=middle;spacingLeft=4;spacingRight=4;overflow=hidden;points=[[0,0.5],[1,0.5]];portConstraint=eastwest;rotatable=0;whiteSpace=wrap;html=1;" parent="dPE6dNKuwwYWv2fvzeOf-25" vertex="1">
          <mxGeometry y="150" width="160" height="30" as="geometry" />
        </mxCell>
        <mxCell id="xy2YS7yTcEFX0t7BhOpo-34" value="-RecordatoriosAutomaticos" style="text;strokeColor=none;fillColor=none;align=left;verticalAlign=middle;spacingLeft=4;spacingRight=4;overflow=hidden;points=[[0,0.5],[1,0.5]];portConstraint=eastwest;rotatable=0;whiteSpace=wrap;html=1;" parent="dPE6dNKuwwYWv2fvzeOf-25" vertex="1">
          <mxGeometry y="180" width="160" height="30" as="geometry" />
        </mxCell>
        <mxCell id="dPE6dNKuwwYWv2fvzeOf-72" value="+AgendarCita" style="text;strokeColor=none;fillColor=none;align=left;verticalAlign=middle;spacingLeft=4;spacingRight=4;overflow=hidden;points=[[0,0.5],[1,0.5]];portConstraint=eastwest;rotatable=0;whiteSpace=wrap;html=1;" parent="dPE6dNKuwwYWv2fvzeOf-25" vertex="1">
          <mxGeometry y="210" width="160" height="30" as="geometry" />
        </mxCell>
        <mxCell id="dPE6dNKuwwYWv2fvzeOf-71" value="+ModificarCita" style="text;strokeColor=none;fillColor=none;align=left;verticalAlign=middle;spacingLeft=4;spacingRight=4;overflow=hidden;points=[[0,0.5],[1,0.5]];portConstraint=eastwest;rotatable=0;whiteSpace=wrap;html=1;" parent="dPE6dNKuwwYWv2fvzeOf-25" vertex="1">
          <mxGeometry y="240" width="160" height="30" as="geometry" />
        </mxCell>
        <mxCell id="xy2YS7yTcEFX0t7BhOpo-35" value="+VisualizarCitas" style="text;strokeColor=none;fillColor=none;align=left;verticalAlign=middle;spacingLeft=4;spacingRight=4;overflow=hidden;points=[[0,0.5],[1,0.5]];portConstraint=eastwest;rotatable=0;whiteSpace=wrap;html=1;" parent="dPE6dNKuwwYWv2fvzeOf-25" vertex="1">
          <mxGeometry y="270" width="160" height="30" as="geometry" />
        </mxCell>
        <mxCell id="dPE6dNKuwwYWv2fvzeOf-73" value="+CancelarCita" style="text;strokeColor=none;fillColor=none;align=left;verticalAlign=middle;spacingLeft=4;spacingRight=4;overflow=hidden;points=[[0,0.5],[1,0.5]];portConstraint=eastwest;rotatable=0;whiteSpace=wrap;html=1;" parent="dPE6dNKuwwYWv2fvzeOf-25" vertex="1">
          <mxGeometry y="300" width="160" height="30" as="geometry" />
        </mxCell>
        <mxCell id="dPE6dNKuwwYWv2fvzeOf-31" value="Paciente" style="swimlane;fontStyle=0;childLayout=stackLayout;horizontal=1;startSize=30;horizontalStack=0;resizeParent=1;resizeParentMax=0;resizeLast=0;collapsible=1;marginBottom=0;whiteSpace=wrap;html=1;" parent="1" vertex="1">
          <mxGeometry x="600" y="370" width="140" height="330" as="geometry" />
        </mxCell>
        <mxCell id="dPE6dNKuwwYWv2fvzeOf-32" value="-Nombre" style="text;strokeColor=none;fillColor=none;align=left;verticalAlign=middle;spacingLeft=4;spacingRight=4;overflow=hidden;points=[[0,0.5],[1,0.5]];portConstraint=eastwest;rotatable=0;whiteSpace=wrap;html=1;" parent="dPE6dNKuwwYWv2fvzeOf-31" vertex="1">
          <mxGeometry y="30" width="140" height="30" as="geometry" />
        </mxCell>
        <mxCell id="dPE6dNKuwwYWv2fvzeOf-33" value="-Raza" style="text;strokeColor=none;fillColor=none;align=left;verticalAlign=middle;spacingLeft=4;spacingRight=4;overflow=hidden;points=[[0,0.5],[1,0.5]];portConstraint=eastwest;rotatable=0;whiteSpace=wrap;html=1;" parent="dPE6dNKuwwYWv2fvzeOf-31" vertex="1">
          <mxGeometry y="60" width="140" height="30" as="geometry" />
        </mxCell>
        <mxCell id="dPE6dNKuwwYWv2fvzeOf-34" value="-Especie" style="text;strokeColor=none;fillColor=none;align=left;verticalAlign=middle;spacingLeft=4;spacingRight=4;overflow=hidden;points=[[0,0.5],[1,0.5]];portConstraint=eastwest;rotatable=0;whiteSpace=wrap;html=1;" parent="dPE6dNKuwwYWv2fvzeOf-31" vertex="1">
          <mxGeometry y="90" width="140" height="30" as="geometry" />
        </mxCell>
        <mxCell id="xy2YS7yTcEFX0t7BhOpo-15" value="-Sexo" style="text;strokeColor=none;fillColor=none;align=left;verticalAlign=middle;spacingLeft=4;spacingRight=4;overflow=hidden;points=[[0,0.5],[1,0.5]];portConstraint=eastwest;rotatable=0;whiteSpace=wrap;html=1;" parent="dPE6dNKuwwYWv2fvzeOf-31" vertex="1">
          <mxGeometry y="120" width="140" height="30" as="geometry" />
        </mxCell>
        <mxCell id="xy2YS7yTcEFX0t7BhOpo-31" value="-Fotografia" style="text;strokeColor=none;fillColor=none;align=left;verticalAlign=middle;spacingLeft=4;spacingRight=4;overflow=hidden;points=[[0,0.5],[1,0.5]];portConstraint=eastwest;rotatable=0;whiteSpace=wrap;html=1;" parent="dPE6dNKuwwYWv2fvzeOf-31" vertex="1">
          <mxGeometry y="150" width="140" height="30" as="geometry" />
        </mxCell>
        <mxCell id="xy2YS7yTcEFX0t7BhOpo-14" value="-Microchip" style="text;strokeColor=none;fillColor=none;align=left;verticalAlign=middle;spacingLeft=4;spacingRight=4;overflow=hidden;points=[[0,0.5],[1,0.5]];portConstraint=eastwest;rotatable=0;whiteSpace=wrap;html=1;" parent="dPE6dNKuwwYWv2fvzeOf-31" vertex="1">
          <mxGeometry y="180" width="140" height="30" as="geometry" />
        </mxCell>
        <mxCell id="dPE6dNKuwwYWv2fvzeOf-35" value="-FechaNacimiento" style="text;strokeColor=none;fillColor=none;align=left;verticalAlign=middle;spacingLeft=4;spacingRight=4;overflow=hidden;points=[[0,0.5],[1,0.5]];portConstraint=eastwest;rotatable=0;whiteSpace=wrap;html=1;" parent="dPE6dNKuwwYWv2fvzeOf-31" vertex="1">
          <mxGeometry y="210" width="140" height="30" as="geometry" />
        </mxCell>
        <mxCell id="dPE6dNKuwwYWv2fvzeOf-69" value="+RegistrarPaciente" style="text;strokeColor=none;fillColor=none;align=left;verticalAlign=middle;spacingLeft=4;spacingRight=4;overflow=hidden;points=[[0,0.5],[1,0.5]];portConstraint=eastwest;rotatable=0;whiteSpace=wrap;html=1;" parent="dPE6dNKuwwYWv2fvzeOf-31" vertex="1">
          <mxGeometry y="240" width="140" height="30" as="geometry" />
        </mxCell>
        <mxCell id="dPE6dNKuwwYWv2fvzeOf-68" value="+ModificarPaciente" style="text;strokeColor=none;fillColor=none;align=left;verticalAlign=middle;spacingLeft=4;spacingRight=4;overflow=hidden;points=[[0,0.5],[1,0.5]];portConstraint=eastwest;rotatable=0;whiteSpace=wrap;html=1;" parent="dPE6dNKuwwYWv2fvzeOf-31" vertex="1">
          <mxGeometry y="270" width="140" height="30" as="geometry" />
        </mxCell>
        <mxCell id="dPE6dNKuwwYWv2fvzeOf-70" value="+EliminarPaciente" style="text;strokeColor=none;fillColor=none;align=left;verticalAlign=middle;spacingLeft=4;spacingRight=4;overflow=hidden;points=[[0,0.5],[1,0.5]];portConstraint=eastwest;rotatable=0;whiteSpace=wrap;html=1;" parent="dPE6dNKuwwYWv2fvzeOf-31" vertex="1">
          <mxGeometry y="300" width="140" height="30" as="geometry" />
        </mxCell>
        <mxCell id="dPE6dNKuwwYWv2fvzeOf-37" value="Usuario" style="swimlane;fontStyle=0;childLayout=stackLayout;horizontal=1;startSize=30;horizontalStack=0;resizeParent=1;resizeParentMax=0;resizeLast=0;collapsible=1;marginBottom=0;whiteSpace=wrap;html=1;" parent="1" vertex="1">
          <mxGeometry x="-350" y="310" width="140" height="210" as="geometry" />
        </mxCell>
        <mxCell id="dPE6dNKuwwYWv2fvzeOf-39" value="-Email" style="text;strokeColor=none;fillColor=none;align=left;verticalAlign=middle;spacingLeft=4;spacingRight=4;overflow=hidden;points=[[0,0.5],[1,0.5]];portConstraint=eastwest;rotatable=0;whiteSpace=wrap;html=1;" parent="dPE6dNKuwwYWv2fvzeOf-37" vertex="1">
          <mxGeometry y="30" width="140" height="30" as="geometry" />
        </mxCell>
        <mxCell id="dPE6dNKuwwYWv2fvzeOf-40" value="-Contraseña" style="text;strokeColor=none;fillColor=none;align=left;verticalAlign=middle;spacingLeft=4;spacingRight=4;overflow=hidden;points=[[0,0.5],[1,0.5]];portConstraint=eastwest;rotatable=0;whiteSpace=wrap;html=1;" parent="dPE6dNKuwwYWv2fvzeOf-37" vertex="1">
          <mxGeometry y="60" width="140" height="30" as="geometry" />
        </mxCell>
        <mxCell id="dPE6dNKuwwYWv2fvzeOf-42" value="-Nombre" style="text;strokeColor=none;fillColor=none;align=left;verticalAlign=middle;spacingLeft=4;spacingRight=4;overflow=hidden;points=[[0,0.5],[1,0.5]];portConstraint=eastwest;rotatable=0;whiteSpace=wrap;html=1;" parent="dPE6dNKuwwYWv2fvzeOf-37" vertex="1">
          <mxGeometry y="90" width="140" height="30" as="geometry" />
        </mxCell>
        <mxCell id="dPE6dNKuwwYWv2fvzeOf-41" value="-Rol" style="text;strokeColor=none;fillColor=none;align=left;verticalAlign=middle;spacingLeft=4;spacingRight=4;overflow=hidden;points=[[0,0.5],[1,0.5]];portConstraint=eastwest;rotatable=0;whiteSpace=wrap;html=1;" parent="dPE6dNKuwwYWv2fvzeOf-37" vertex="1">
          <mxGeometry y="120" width="140" height="30" as="geometry" />
        </mxCell>
        <mxCell id="dPE6dNKuwwYWv2fvzeOf-43" value="+CrearUsuario" style="text;strokeColor=none;fillColor=none;align=left;verticalAlign=middle;spacingLeft=4;spacingRight=4;overflow=hidden;points=[[0,0.5],[1,0.5]];portConstraint=eastwest;rotatable=0;whiteSpace=wrap;html=1;" parent="dPE6dNKuwwYWv2fvzeOf-37" vertex="1">
          <mxGeometry y="150" width="140" height="30" as="geometry" />
        </mxCell>
        <mxCell id="dPE6dNKuwwYWv2fvzeOf-44" value="+EliminarUsuario" style="text;strokeColor=none;fillColor=none;align=left;verticalAlign=middle;spacingLeft=4;spacingRight=4;overflow=hidden;points=[[0,0.5],[1,0.5]];portConstraint=eastwest;rotatable=0;whiteSpace=wrap;html=1;" parent="dPE6dNKuwwYWv2fvzeOf-37" vertex="1">
          <mxGeometry y="180" width="140" height="30" as="geometry" />
        </mxCell>
        <mxCell id="dPE6dNKuwwYWv2fvzeOf-45" value="Rol" style="swimlane;fontStyle=0;childLayout=stackLayout;horizontal=1;startSize=30;horizontalStack=0;resizeParent=1;resizeParentMax=0;resizeLast=0;collapsible=1;marginBottom=0;whiteSpace=wrap;html=1;" parent="1" vertex="1">
          <mxGeometry x="-10" y="560" width="140" height="180" as="geometry" />
        </mxCell>
        <mxCell id="dPE6dNKuwwYWv2fvzeOf-46" value="-NombreRol" style="text;strokeColor=none;fillColor=none;align=left;verticalAlign=middle;spacingLeft=4;spacingRight=4;overflow=hidden;points=[[0,0.5],[1,0.5]];portConstraint=eastwest;rotatable=0;whiteSpace=wrap;html=1;" parent="dPE6dNKuwwYWv2fvzeOf-45" vertex="1">
          <mxGeometry y="30" width="140" height="30" as="geometry" />
        </mxCell>
        <mxCell id="dPE6dNKuwwYWv2fvzeOf-47" value="-PermisosaAsociados" style="text;strokeColor=none;fillColor=none;align=left;verticalAlign=middle;spacingLeft=4;spacingRight=4;overflow=hidden;points=[[0,0.5],[1,0.5]];portConstraint=eastwest;rotatable=0;whiteSpace=wrap;html=1;" parent="dPE6dNKuwwYWv2fvzeOf-45" vertex="1">
          <mxGeometry y="60" width="140" height="30" as="geometry" />
        </mxCell>
        <mxCell id="dPE6dNKuwwYWv2fvzeOf-48" value="+CrearRol" style="text;strokeColor=none;fillColor=none;align=left;verticalAlign=middle;spacingLeft=4;spacingRight=4;overflow=hidden;points=[[0,0.5],[1,0.5]];portConstraint=eastwest;rotatable=0;whiteSpace=wrap;html=1;" parent="dPE6dNKuwwYWv2fvzeOf-45" vertex="1">
          <mxGeometry y="90" width="140" height="30" as="geometry" />
        </mxCell>
        <mxCell id="dPE6dNKuwwYWv2fvzeOf-50" value="+EditarRol" style="text;strokeColor=none;fillColor=none;align=left;verticalAlign=middle;spacingLeft=4;spacingRight=4;overflow=hidden;points=[[0,0.5],[1,0.5]];portConstraint=eastwest;rotatable=0;whiteSpace=wrap;html=1;" parent="dPE6dNKuwwYWv2fvzeOf-45" vertex="1">
          <mxGeometry y="120" width="140" height="30" as="geometry" />
        </mxCell>
        <mxCell id="dPE6dNKuwwYWv2fvzeOf-49" value="+AsignarRol" style="text;strokeColor=none;fillColor=none;align=left;verticalAlign=middle;spacingLeft=4;spacingRight=4;overflow=hidden;points=[[0,0.5],[1,0.5]];portConstraint=eastwest;rotatable=0;whiteSpace=wrap;html=1;" parent="dPE6dNKuwwYWv2fvzeOf-45" vertex="1">
          <mxGeometry y="150" width="140" height="30" as="geometry" />
        </mxCell>
        <mxCell id="dPE6dNKuwwYWv2fvzeOf-51" value="Herramienta de comunicacion&amp;nbsp;" style="swimlane;fontStyle=0;childLayout=stackLayout;horizontal=1;startSize=30;horizontalStack=0;resizeParent=1;resizeParentMax=0;resizeLast=0;collapsible=1;marginBottom=0;whiteSpace=wrap;html=1;" parent="1" vertex="1">
          <mxGeometry x="-413" y="1020" width="140" height="120" as="geometry" />
        </mxCell>
        <mxCell id="dPE6dNKuwwYWv2fvzeOf-54" value="-Contenido" style="text;strokeColor=none;fillColor=none;align=left;verticalAlign=middle;spacingLeft=4;spacingRight=4;overflow=hidden;points=[[0,0.5],[1,0.5]];portConstraint=eastwest;rotatable=0;whiteSpace=wrap;html=1;" parent="dPE6dNKuwwYWv2fvzeOf-51" vertex="1">
          <mxGeometry y="30" width="140" height="30" as="geometry" />
        </mxCell>
        <mxCell id="dPE6dNKuwwYWv2fvzeOf-52" value="+EnviarMensaje" style="text;strokeColor=none;fillColor=none;align=left;verticalAlign=middle;spacingLeft=4;spacingRight=4;overflow=hidden;points=[[0,0.5],[1,0.5]];portConstraint=eastwest;rotatable=0;whiteSpace=wrap;html=1;" parent="dPE6dNKuwwYWv2fvzeOf-51" vertex="1">
          <mxGeometry y="60" width="140" height="30" as="geometry" />
        </mxCell>
        <mxCell id="dPE6dNKuwwYWv2fvzeOf-53" value="+RecibirMensaje" style="text;strokeColor=none;fillColor=none;align=left;verticalAlign=middle;spacingLeft=4;spacingRight=4;overflow=hidden;points=[[0,0.5],[1,0.5]];portConstraint=eastwest;rotatable=0;whiteSpace=wrap;html=1;" parent="dPE6dNKuwwYWv2fvzeOf-51" vertex="1">
          <mxGeometry y="90" width="140" height="30" as="geometry" />
        </mxCell>
        <mxCell id="dPE6dNKuwwYWv2fvzeOf-55" value="Ficha clinica" style="swimlane;fontStyle=0;childLayout=stackLayout;horizontal=1;startSize=30;horizontalStack=0;resizeParent=1;resizeParentMax=0;resizeLast=0;collapsible=1;marginBottom=0;whiteSpace=wrap;html=1;" parent="1" vertex="1">
          <mxGeometry x="580" y="1100" width="220" height="570" as="geometry" />
        </mxCell>
        <mxCell id="dPE6dNKuwwYWv2fvzeOf-56" value="-FechaHoraCreacion" style="text;strokeColor=none;fillColor=none;align=left;verticalAlign=middle;spacingLeft=4;spacingRight=4;overflow=hidden;points=[[0,0.5],[1,0.5]];portConstraint=eastwest;rotatable=0;whiteSpace=wrap;html=1;" parent="dPE6dNKuwwYWv2fvzeOf-55" vertex="1">
          <mxGeometry y="30" width="220" height="30" as="geometry" />
        </mxCell>
        <mxCell id="dPE6dNKuwwYWv2fvzeOf-57" value="-Anamnesis" style="text;strokeColor=none;fillColor=none;align=left;verticalAlign=middle;spacingLeft=4;spacingRight=4;overflow=hidden;points=[[0,0.5],[1,0.5]];portConstraint=eastwest;rotatable=0;whiteSpace=wrap;html=1;" parent="dPE6dNKuwwYWv2fvzeOf-55" vertex="1">
          <mxGeometry y="60" width="220" height="30" as="geometry" />
        </mxCell>
        <mxCell id="dPE6dNKuwwYWv2fvzeOf-58" value="-Estadoemocional_Comportamineto" style="text;strokeColor=none;fillColor=none;align=left;verticalAlign=middle;spacingLeft=4;spacingRight=4;overflow=hidden;points=[[0,0.5],[1,0.5]];portConstraint=eastwest;rotatable=0;whiteSpace=wrap;html=1;" parent="dPE6dNKuwwYWv2fvzeOf-55" vertex="1">
          <mxGeometry y="90" width="220" height="30" as="geometry" />
        </mxCell>
        <mxCell id="dPE6dNKuwwYWv2fvzeOf-59" value="-DiagnosticoTratamientos" style="text;strokeColor=none;fillColor=none;align=left;verticalAlign=middle;spacingLeft=4;spacingRight=4;overflow=hidden;points=[[0,0.5],[1,0.5]];portConstraint=eastwest;rotatable=0;whiteSpace=wrap;html=1;" parent="dPE6dNKuwwYWv2fvzeOf-55" vertex="1">
          <mxGeometry y="120" width="220" height="30" as="geometry" />
        </mxCell>
        <mxCell id="dPE6dNKuwwYWv2fvzeOf-60" value="-Procedimientos" style="text;strokeColor=none;fillColor=none;align=left;verticalAlign=middle;spacingLeft=4;spacingRight=4;overflow=hidden;points=[[0,0.5],[1,0.5]];portConstraint=eastwest;rotatable=0;whiteSpace=wrap;html=1;" parent="dPE6dNKuwwYWv2fvzeOf-55" vertex="1">
          <mxGeometry y="150" width="220" height="30" as="geometry" />
        </mxCell>
        <mxCell id="dPE6dNKuwwYWv2fvzeOf-61" value="-Hospitalizacion&amp;nbsp;" style="text;strokeColor=none;fillColor=none;align=left;verticalAlign=middle;spacingLeft=4;spacingRight=4;overflow=hidden;points=[[0,0.5],[1,0.5]];portConstraint=eastwest;rotatable=0;whiteSpace=wrap;html=1;" parent="dPE6dNKuwwYWv2fvzeOf-55" vertex="1">
          <mxGeometry y="180" width="220" height="30" as="geometry" />
        </mxCell>
        <mxCell id="dPE6dNKuwwYWv2fvzeOf-62" value="-Peso" style="text;strokeColor=none;fillColor=none;align=left;verticalAlign=middle;spacingLeft=4;spacingRight=4;overflow=hidden;points=[[0,0.5],[1,0.5]];portConstraint=eastwest;rotatable=0;whiteSpace=wrap;html=1;" parent="dPE6dNKuwwYWv2fvzeOf-55" vertex="1">
          <mxGeometry y="210" width="220" height="30" as="geometry" />
        </mxCell>
        <mxCell id="xy2YS7yTcEFX0t7BhOpo-13" value="-Cirugias" style="text;strokeColor=none;fillColor=none;align=left;verticalAlign=middle;spacingLeft=4;spacingRight=4;overflow=hidden;points=[[0,0.5],[1,0.5]];portConstraint=eastwest;rotatable=0;whiteSpace=wrap;html=1;" parent="dPE6dNKuwwYWv2fvzeOf-55" vertex="1">
          <mxGeometry y="240" width="220" height="30" as="geometry" />
        </mxCell>
        <mxCell id="dPE6dNKuwwYWv2fvzeOf-63" value="-Temperatura" style="text;strokeColor=none;fillColor=none;align=left;verticalAlign=middle;spacingLeft=4;spacingRight=4;overflow=hidden;points=[[0,0.5],[1,0.5]];portConstraint=eastwest;rotatable=0;whiteSpace=wrap;html=1;" parent="dPE6dNKuwwYWv2fvzeOf-55" vertex="1">
          <mxGeometry y="270" width="220" height="30" as="geometry" />
        </mxCell>
        <mxCell id="xy2YS7yTcEFX0t7BhOpo-24" value="-EscogerEstablecimiento" style="text;strokeColor=none;fillColor=none;align=left;verticalAlign=middle;spacingLeft=4;spacingRight=4;overflow=hidden;points=[[0,0.5],[1,0.5]];portConstraint=eastwest;rotatable=0;whiteSpace=wrap;html=1;" parent="dPE6dNKuwwYWv2fvzeOf-55" vertex="1">
          <mxGeometry y="300" width="220" height="30" as="geometry" />
        </mxCell>
        <mxCell id="xy2YS7yTcEFX0t7BhOpo-16" value="-CondiciónCorporal" style="text;strokeColor=none;fillColor=none;align=left;verticalAlign=middle;spacingLeft=4;spacingRight=4;overflow=hidden;points=[[0,0.5],[1,0.5]];portConstraint=eastwest;rotatable=0;whiteSpace=wrap;html=1;" parent="dPE6dNKuwwYWv2fvzeOf-55" vertex="1">
          <mxGeometry y="330" width="220" height="30" as="geometry" />
        </mxCell>
        <mxCell id="xy2YS7yTcEFX0t7BhOpo-26" value="-InsumusUtilizados" style="text;strokeColor=none;fillColor=none;align=left;verticalAlign=middle;spacingLeft=4;spacingRight=4;overflow=hidden;points=[[0,0.5],[1,0.5]];portConstraint=eastwest;rotatable=0;whiteSpace=wrap;html=1;" parent="dPE6dNKuwwYWv2fvzeOf-55" vertex="1">
          <mxGeometry y="360" width="220" height="30" as="geometry" />
        </mxCell>
        <mxCell id="xy2YS7yTcEFX0t7BhOpo-28" value="-AlertasClinicas" style="text;strokeColor=none;fillColor=none;align=left;verticalAlign=middle;spacingLeft=4;spacingRight=4;overflow=hidden;points=[[0,0.5],[1,0.5]];portConstraint=eastwest;rotatable=0;whiteSpace=wrap;html=1;" parent="dPE6dNKuwwYWv2fvzeOf-55" vertex="1">
          <mxGeometry y="390" width="220" height="30" as="geometry" />
        </mxCell>
        <mxCell id="xy2YS7yTcEFX0t7BhOpo-17" value="-MotivoConsulta" style="text;strokeColor=none;fillColor=none;align=left;verticalAlign=middle;spacingLeft=4;spacingRight=4;overflow=hidden;points=[[0,0.5],[1,0.5]];portConstraint=eastwest;rotatable=0;whiteSpace=wrap;html=1;" parent="dPE6dNKuwwYWv2fvzeOf-55" vertex="1">
          <mxGeometry y="420" width="220" height="30" as="geometry" />
        </mxCell>
        <mxCell id="dPE6dNKuwwYWv2fvzeOf-64" value="-Observaciones" style="text;strokeColor=none;fillColor=none;align=left;verticalAlign=middle;spacingLeft=4;spacingRight=4;overflow=hidden;points=[[0,0.5],[1,0.5]];portConstraint=eastwest;rotatable=0;whiteSpace=wrap;html=1;" parent="dPE6dNKuwwYWv2fvzeOf-55" vertex="1">
          <mxGeometry y="450" width="220" height="30" as="geometry" />
        </mxCell>
        <mxCell id="dPE6dNKuwwYWv2fvzeOf-74" value="+CrearFicha" style="text;strokeColor=none;fillColor=none;align=left;verticalAlign=middle;spacingLeft=4;spacingRight=4;overflow=hidden;points=[[0,0.5],[1,0.5]];portConstraint=eastwest;rotatable=0;whiteSpace=wrap;html=1;" parent="dPE6dNKuwwYWv2fvzeOf-55" vertex="1">
          <mxGeometry y="480" width="220" height="30" as="geometry" />
        </mxCell>
        <mxCell id="dPE6dNKuwwYWv2fvzeOf-76" value="+ModificarFicha" style="text;strokeColor=none;fillColor=none;align=left;verticalAlign=middle;spacingLeft=4;spacingRight=4;overflow=hidden;points=[[0,0.5],[1,0.5]];portConstraint=eastwest;rotatable=0;whiteSpace=wrap;html=1;" parent="dPE6dNKuwwYWv2fvzeOf-55" vertex="1">
          <mxGeometry y="510" width="220" height="30" as="geometry" />
        </mxCell>
        <mxCell id="dPE6dNKuwwYWv2fvzeOf-75" value="+CerrarFicha" style="text;strokeColor=none;fillColor=none;align=left;verticalAlign=middle;spacingLeft=4;spacingRight=4;overflow=hidden;points=[[0,0.5],[1,0.5]];portConstraint=eastwest;rotatable=0;whiteSpace=wrap;html=1;" parent="dPE6dNKuwwYWv2fvzeOf-55" vertex="1">
          <mxGeometry y="540" width="220" height="30" as="geometry" />
        </mxCell>
        <mxCell id="dPE6dNKuwwYWv2fvzeOf-83" value="Documento" style="swimlane;fontStyle=0;childLayout=stackLayout;horizontal=1;startSize=30;horizontalStack=0;resizeParent=1;resizeParentMax=0;resizeLast=0;collapsible=1;marginBottom=0;whiteSpace=wrap;html=1;" parent="1" vertex="1">
          <mxGeometry x="570" y="1840" width="140" height="210" as="geometry" />
        </mxCell>
        <mxCell id="dPE6dNKuwwYWv2fvzeOf-84" value="-Tipo" style="text;strokeColor=none;fillColor=none;align=left;verticalAlign=middle;spacingLeft=4;spacingRight=4;overflow=hidden;points=[[0,0.5],[1,0.5]];portConstraint=eastwest;rotatable=0;whiteSpace=wrap;html=1;" parent="dPE6dNKuwwYWv2fvzeOf-83" vertex="1">
          <mxGeometry y="30" width="140" height="30" as="geometry" />
        </mxCell>
        <mxCell id="dPE6dNKuwwYWv2fvzeOf-85" value="-Archivo" style="text;strokeColor=none;fillColor=none;align=left;verticalAlign=middle;spacingLeft=4;spacingRight=4;overflow=hidden;points=[[0,0.5],[1,0.5]];portConstraint=eastwest;rotatable=0;whiteSpace=wrap;html=1;" parent="dPE6dNKuwwYWv2fvzeOf-83" vertex="1">
          <mxGeometry y="60" width="140" height="30" as="geometry" />
        </mxCell>
        <mxCell id="dPE6dNKuwwYWv2fvzeOf-86" value="-Fecha" style="text;strokeColor=none;fillColor=none;align=left;verticalAlign=middle;spacingLeft=4;spacingRight=4;overflow=hidden;points=[[0,0.5],[1,0.5]];portConstraint=eastwest;rotatable=0;whiteSpace=wrap;html=1;" parent="dPE6dNKuwwYWv2fvzeOf-83" vertex="1">
          <mxGeometry y="90" width="140" height="30" as="geometry" />
        </mxCell>
        <mxCell id="xy2YS7yTcEFX0t7BhOpo-1" value="+EliminarDocumento" style="text;strokeColor=none;fillColor=none;align=left;verticalAlign=middle;spacingLeft=4;spacingRight=4;overflow=hidden;points=[[0,0.5],[1,0.5]];portConstraint=eastwest;rotatable=0;whiteSpace=wrap;html=1;" parent="dPE6dNKuwwYWv2fvzeOf-83" vertex="1">
          <mxGeometry y="120" width="140" height="30" as="geometry" />
        </mxCell>
        <mxCell id="dPE6dNKuwwYWv2fvzeOf-87" value="+AdjuntarDocumento" style="text;strokeColor=none;fillColor=none;align=left;verticalAlign=middle;spacingLeft=4;spacingRight=4;overflow=hidden;points=[[0,0.5],[1,0.5]];portConstraint=eastwest;rotatable=0;whiteSpace=wrap;html=1;" parent="dPE6dNKuwwYWv2fvzeOf-83" vertex="1">
          <mxGeometry y="150" width="140" height="30" as="geometry" />
        </mxCell>
        <mxCell id="dPE6dNKuwwYWv2fvzeOf-88" value="+Verdocumento" style="text;strokeColor=none;fillColor=none;align=left;verticalAlign=middle;spacingLeft=4;spacingRight=4;overflow=hidden;points=[[0,0.5],[1,0.5]];portConstraint=eastwest;rotatable=0;whiteSpace=wrap;html=1;" parent="dPE6dNKuwwYWv2fvzeOf-83" vertex="1">
          <mxGeometry y="180" width="140" height="30" as="geometry" />
        </mxCell>
        <mxCell id="dPE6dNKuwwYWv2fvzeOf-90" value="tiene" style="text;html=1;align=center;verticalAlign=middle;whiteSpace=wrap;rounded=0;" parent="1" vertex="1">
          <mxGeometry x="660" y="240" width="60" height="30" as="geometry" />
        </mxCell>
        <mxCell id="dPE6dNKuwwYWv2fvzeOf-91" value="" style="endArrow=none;html=1;rounded=0;entryX=0.571;entryY=1.008;entryDx=0;entryDy=0;entryPerimeter=0;exitX=0.454;exitY=0;exitDx=0;exitDy=0;exitPerimeter=0;" parent="1" source="dPE6dNKuwwYWv2fvzeOf-55" target="dPE6dNKuwwYWv2fvzeOf-70" edge="1">
          <mxGeometry width="50" height="50" relative="1" as="geometry">
            <mxPoint x="680" y="840" as="sourcePoint" />
            <mxPoint x="668" y="640" as="targetPoint" />
          </mxGeometry>
        </mxCell>
        <mxCell id="dPE6dNKuwwYWv2fvzeOf-92" value="posee" style="text;html=1;align=center;verticalAlign=middle;whiteSpace=wrap;rounded=0;" parent="1" vertex="1">
          <mxGeometry x="680" y="810" width="60" height="30" as="geometry" />
        </mxCell>
        <mxCell id="dPE6dNKuwwYWv2fvzeOf-93" value="" style="endArrow=none;html=1;rounded=0;exitX=0.5;exitY=0;exitDx=0;exitDy=0;" parent="1" source="dPE6dNKuwwYWv2fvzeOf-25" edge="1">
          <mxGeometry width="50" height="50" relative="1" as="geometry">
            <mxPoint x="300" y="520" as="sourcePoint" />
            <mxPoint x="370" y="331" as="targetPoint" />
          </mxGeometry>
        </mxCell>
        <mxCell id="dPE6dNKuwwYWv2fvzeOf-94" value="solicita" style="text;html=1;align=center;verticalAlign=middle;whiteSpace=wrap;rounded=0;" parent="1" vertex="1">
          <mxGeometry x="370" y="490" width="60" height="30" as="geometry" />
        </mxCell>
        <mxCell id="dPE6dNKuwwYWv2fvzeOf-77" value="Pago" style="swimlane;fontStyle=0;childLayout=stackLayout;horizontal=1;startSize=30;horizontalStack=0;resizeParent=1;resizeParentMax=0;resizeLast=0;collapsible=1;marginBottom=0;whiteSpace=wrap;html=1;" parent="1" vertex="1">
          <mxGeometry x="930" y="840" width="140" height="210" as="geometry" />
        </mxCell>
        <mxCell id="dPE6dNKuwwYWv2fvzeOf-78" value="-Monto" style="text;strokeColor=none;fillColor=none;align=left;verticalAlign=middle;spacingLeft=4;spacingRight=4;overflow=hidden;points=[[0,0.5],[1,0.5]];portConstraint=eastwest;rotatable=0;whiteSpace=wrap;html=1;" parent="dPE6dNKuwwYWv2fvzeOf-77" vertex="1">
          <mxGeometry y="30" width="140" height="30" as="geometry" />
        </mxCell>
        <mxCell id="dPE6dNKuwwYWv2fvzeOf-79" value="-Fecha" style="text;strokeColor=none;fillColor=none;align=left;verticalAlign=middle;spacingLeft=4;spacingRight=4;overflow=hidden;points=[[0,0.5],[1,0.5]];portConstraint=eastwest;rotatable=0;whiteSpace=wrap;html=1;" parent="dPE6dNKuwwYWv2fvzeOf-77" vertex="1">
          <mxGeometry y="60" width="140" height="30" as="geometry" />
        </mxCell>
        <mxCell id="dPE6dNKuwwYWv2fvzeOf-80" value="-MedioPago" style="text;strokeColor=none;fillColor=none;align=left;verticalAlign=middle;spacingLeft=4;spacingRight=4;overflow=hidden;points=[[0,0.5],[1,0.5]];portConstraint=eastwest;rotatable=0;whiteSpace=wrap;html=1;" parent="dPE6dNKuwwYWv2fvzeOf-77" vertex="1">
          <mxGeometry y="90" width="140" height="30" as="geometry" />
        </mxCell>
        <mxCell id="dPE6dNKuwwYWv2fvzeOf-81" value="-Detalle" style="text;strokeColor=none;fillColor=none;align=left;verticalAlign=middle;spacingLeft=4;spacingRight=4;overflow=hidden;points=[[0,0.5],[1,0.5]];portConstraint=eastwest;rotatable=0;whiteSpace=wrap;html=1;" parent="dPE6dNKuwwYWv2fvzeOf-77" vertex="1">
          <mxGeometry y="120" width="140" height="30" as="geometry" />
        </mxCell>
        <mxCell id="xy2YS7yTcEFX0t7BhOpo-59" value="+RealizarPago" style="text;strokeColor=none;fillColor=none;align=left;verticalAlign=middle;spacingLeft=4;spacingRight=4;overflow=hidden;points=[[0,0.5],[1,0.5]];portConstraint=eastwest;rotatable=0;whiteSpace=wrap;html=1;" parent="dPE6dNKuwwYWv2fvzeOf-77" vertex="1">
          <mxGeometry y="150" width="140" height="30" as="geometry" />
        </mxCell>
        <mxCell id="dPE6dNKuwwYWv2fvzeOf-82" value="+RegistrarPago" style="text;strokeColor=none;fillColor=none;align=left;verticalAlign=middle;spacingLeft=4;spacingRight=4;overflow=hidden;points=[[0,0.5],[1,0.5]];portConstraint=eastwest;rotatable=0;whiteSpace=wrap;html=1;" parent="dPE6dNKuwwYWv2fvzeOf-77" vertex="1">
          <mxGeometry y="180" width="140" height="30" as="geometry" />
        </mxCell>
        <mxCell id="dPE6dNKuwwYWv2fvzeOf-98" value="realiza" style="text;html=1;align=center;verticalAlign=middle;whiteSpace=wrap;rounded=0;" parent="1" vertex="1">
          <mxGeometry x="780" y="40" width="60" height="30" as="geometry" />
        </mxCell>
        <mxCell id="dPE6dNKuwwYWv2fvzeOf-101" value="atiende en" style="text;html=1;align=center;verticalAlign=middle;whiteSpace=wrap;rounded=0;" parent="1" vertex="1">
          <mxGeometry x="-110" y="880" width="60" height="30" as="geometry" />
        </mxCell>
        <mxCell id="dPE6dNKuwwYWv2fvzeOf-102" value="" style="endArrow=none;html=1;rounded=0;exitX=1;exitY=0;exitDx=0;exitDy=0;" parent="1" source="dPE6dNKuwwYWv2fvzeOf-25" edge="1">
          <mxGeometry width="50" height="50" relative="1" as="geometry">
            <mxPoint x="420" y="790" as="sourcePoint" />
            <mxPoint x="600" y="639" as="targetPoint" />
            <Array as="points">
              <mxPoint x="450" y="639" />
            </Array>
          </mxGeometry>
        </mxCell>
        <mxCell id="dPE6dNKuwwYWv2fvzeOf-103" value="es atendido en" style="text;html=1;align=center;verticalAlign=middle;whiteSpace=wrap;rounded=0;" parent="1" vertex="1">
          <mxGeometry x="470" y="600" width="80" height="30" as="geometry" />
        </mxCell>
        <mxCell id="dPE6dNKuwwYWv2fvzeOf-105" value="tiene" style="text;html=1;align=center;verticalAlign=middle;whiteSpace=wrap;rounded=0;" parent="1" vertex="1">
          <mxGeometry x="-150" y="450" width="60" height="30" as="geometry" />
        </mxCell>
        <mxCell id="dPE6dNKuwwYWv2fvzeOf-107" value="adjunta" style="text;html=1;align=center;verticalAlign=middle;whiteSpace=wrap;rounded=0;" parent="1" vertex="1">
          <mxGeometry x="640" y="1740" width="60" height="30" as="geometry" />
        </mxCell>
        <mxCell id="dPE6dNKuwwYWv2fvzeOf-109" value="envia recibe" style="text;html=1;align=center;verticalAlign=middle;whiteSpace=wrap;rounded=0;" parent="1" vertex="1">
          <mxGeometry x="-400" y="760" width="60" height="30" as="geometry" />
        </mxCell>
        <mxCell id="xy2YS7yTcEFX0t7BhOpo-3" value="" style="endArrow=none;html=1;rounded=0;exitX=1;exitY=0.5;exitDx=0;exitDy=0;entryX=0.5;entryY=0;entryDx=0;entryDy=0;startFill=0;" parent="1" source="dPE6dNKuwwYWv2fvzeOf-21" target="dPE6dNKuwwYWv2fvzeOf-31" edge="1">
          <mxGeometry width="50" height="50" relative="1" as="geometry">
            <mxPoint x="680" y="250" as="sourcePoint" />
            <mxPoint x="730" y="200" as="targetPoint" />
            <Array as="points">
              <mxPoint x="670" y="165" />
            </Array>
          </mxGeometry>
        </mxCell>
        <mxCell id="xy2YS7yTcEFX0t7BhOpo-7" value="" style="endArrow=none;html=1;rounded=0;entryX=0.5;entryY=0;entryDx=0;entryDy=0;startFill=0;exitX=0.063;exitY=1;exitDx=0;exitDy=0;exitPerimeter=0;" parent="1" source="dPE6dNKuwwYWv2fvzeOf-44" target="dPE6dNKuwwYWv2fvzeOf-51" edge="1">
          <mxGeometry width="50" height="50" relative="1" as="geometry">
            <mxPoint y="530" as="sourcePoint" />
            <mxPoint x="130" y="580" as="targetPoint" />
          </mxGeometry>
        </mxCell>
        <mxCell id="xy2YS7yTcEFX0t7BhOpo-9" value="" style="endArrow=none;html=1;rounded=0;exitX=1;exitY=0.5;exitDx=0;exitDy=0;startFill=0;entryX=0;entryY=0.5;entryDx=0;entryDy=0;" parent="1" source="dPE6dNKuwwYWv2fvzeOf-44" target="dPE6dNKuwwYWv2fvzeOf-26" edge="1">
          <mxGeometry width="50" height="50" relative="1" as="geometry">
            <mxPoint x="200" y="560" as="sourcePoint" />
            <mxPoint x="320" y="680" as="targetPoint" />
            <Array as="points">
              <mxPoint x="-210" y="880" />
            </Array>
          </mxGeometry>
        </mxCell>
        <mxCell id="xy2YS7yTcEFX0t7BhOpo-10" value="" style="endArrow=none;html=1;rounded=0;exitX=1;exitY=0.5;exitDx=0;exitDy=0;entryX=0.5;entryY=0;entryDx=0;entryDy=0;startFill=0;" parent="1" source="dPE6dNKuwwYWv2fvzeOf-8" target="dPE6dNKuwwYWv2fvzeOf-77" edge="1">
          <mxGeometry width="50" height="50" relative="1" as="geometry">
            <mxPoint x="670" y="110" as="sourcePoint" />
            <mxPoint x="950" y="130" as="targetPoint" />
            <Array as="points">
              <mxPoint x="1000" y="75" />
            </Array>
          </mxGeometry>
        </mxCell>
        <mxCell id="xy2YS7yTcEFX0t7BhOpo-12" value="" style="endArrow=none;html=1;rounded=0;entryX=0;entryY=0.5;entryDx=0;entryDy=0;startFill=0;" parent="1" target="xy2YS7yTcEFX0t7BhOpo-13" edge="1">
          <mxGeometry width="50" height="50" relative="1" as="geometry">
            <mxPoint x="-250" y="520" as="sourcePoint" />
            <mxPoint x="130" y="730" as="targetPoint" />
            <Array as="points">
              <mxPoint x="-250" y="1355" />
            </Array>
          </mxGeometry>
        </mxCell>
        <mxCell id="xy2YS7yTcEFX0t7BhOpo-33" value="" style="endArrow=none;html=1;rounded=0;exitX=1;exitY=0.5;exitDx=0;exitDy=0;startFill=0;" parent="1" source="dPE6dNKuwwYWv2fvzeOf-27" edge="1">
          <mxGeometry width="50" height="50" relative="1" as="geometry">
            <mxPoint x="480" y="950" as="sourcePoint" />
            <mxPoint x="930" y="910" as="targetPoint" />
          </mxGeometry>
        </mxCell>
        <mxCell id="xy2YS7yTcEFX0t7BhOpo-36" value="" style="endArrow=none;html=1;rounded=0;exitX=0.5;exitY=0;exitDx=0;exitDy=0;startFill=0;" parent="1" source="dPE6dNKuwwYWv2fvzeOf-37" edge="1">
          <mxGeometry width="50" height="50" relative="1" as="geometry">
            <mxPoint x="50" y="270" as="sourcePoint" />
            <mxPoint x="1040" y="840" as="targetPoint" />
            <Array as="points">
              <mxPoint x="-280" y="-40" />
              <mxPoint x="1040" y="-40" />
            </Array>
          </mxGeometry>
        </mxCell>
        <mxCell id="xy2YS7yTcEFX0t7BhOpo-37" value="" style="endArrow=none;html=1;rounded=0;startFill=0;" parent="1" edge="1">
          <mxGeometry width="50" height="50" relative="1" as="geometry">
            <mxPoint x="-210" y="360" as="sourcePoint" />
            <mxPoint x="320" y="39" as="targetPoint" />
            <Array as="points">
              <mxPoint x="-80" y="360" />
              <mxPoint x="-80" y="39" />
              <mxPoint x="240" y="40" />
            </Array>
          </mxGeometry>
        </mxCell>
        <mxCell id="xy2YS7yTcEFX0t7BhOpo-38" value="registra" style="text;html=1;align=center;verticalAlign=middle;whiteSpace=wrap;rounded=0;" parent="1" vertex="1">
          <mxGeometry x="-140" y="260" width="60" height="30" as="geometry" />
        </mxCell>
        <mxCell id="xy2YS7yTcEFX0t7BhOpo-39" value="" style="endArrow=none;html=1;rounded=0;entryX=0;entryY=0.5;entryDx=0;entryDy=0;startFill=0;" parent="1" target="dPE6dNKuwwYWv2fvzeOf-48" edge="1">
          <mxGeometry width="50" height="50" relative="1" as="geometry">
            <mxPoint x="-210" y="480" as="sourcePoint" />
            <mxPoint x="-110" y="440" as="targetPoint" />
            <Array as="points">
              <mxPoint x="-80" y="480" />
              <mxPoint x="-80" y="665" />
            </Array>
          </mxGeometry>
        </mxCell>
        <mxCell id="xy2YS7yTcEFX0t7BhOpo-40" value="" style="endArrow=none;html=1;rounded=0;exitX=0;exitY=0.5;exitDx=0;exitDy=0;startFill=0;" parent="1" source="dPE6dNKuwwYWv2fvzeOf-67" edge="1">
          <mxGeometry width="50" height="50" relative="1" as="geometry">
            <mxPoint x="170" y="350" as="sourcePoint" />
            <mxPoint x="133" y="640" as="targetPoint" />
            <Array as="points">
              <mxPoint x="200" y="285" />
              <mxPoint x="200" y="640" />
            </Array>
          </mxGeometry>
        </mxCell>
        <mxCell id="xy2YS7yTcEFX0t7BhOpo-41" value="tiene" style="text;html=1;align=center;verticalAlign=middle;whiteSpace=wrap;rounded=0;" parent="1" vertex="1">
          <mxGeometry x="200" y="250" width="60" height="30" as="geometry" />
        </mxCell>
        <mxCell id="xy2YS7yTcEFX0t7BhOpo-42" value="Recetas Medicas" style="swimlane;fontStyle=0;childLayout=stackLayout;horizontal=1;startSize=30;horizontalStack=0;resizeParent=1;resizeParentMax=0;resizeLast=0;collapsible=1;marginBottom=0;whiteSpace=wrap;html=1;" parent="1" vertex="1">
          <mxGeometry x="-670" y="560" width="140" height="210" as="geometry" />
        </mxCell>
        <mxCell id="xy2YS7yTcEFX0t7BhOpo-43" value="-Detalle" style="text;strokeColor=none;fillColor=none;align=left;verticalAlign=middle;spacingLeft=4;spacingRight=4;overflow=hidden;points=[[0,0.5],[1,0.5]];portConstraint=eastwest;rotatable=0;whiteSpace=wrap;html=1;" parent="xy2YS7yTcEFX0t7BhOpo-42" vertex="1">
          <mxGeometry y="30" width="140" height="30" as="geometry" />
        </mxCell>
        <mxCell id="xy2YS7yTcEFX0t7BhOpo-51" value="-TimbreVeterinario" style="text;strokeColor=none;fillColor=none;align=left;verticalAlign=middle;spacingLeft=4;spacingRight=4;overflow=hidden;points=[[0,0.5],[1,0.5]];portConstraint=eastwest;rotatable=0;whiteSpace=wrap;html=1;" parent="xy2YS7yTcEFX0t7BhOpo-42" vertex="1">
          <mxGeometry y="60" width="140" height="30" as="geometry" />
        </mxCell>
        <mxCell id="xy2YS7yTcEFX0t7BhOpo-47" value="+CrearReceta" style="text;strokeColor=none;fillColor=none;align=left;verticalAlign=middle;spacingLeft=4;spacingRight=4;overflow=hidden;points=[[0,0.5],[1,0.5]];portConstraint=eastwest;rotatable=0;whiteSpace=wrap;html=1;" parent="xy2YS7yTcEFX0t7BhOpo-42" vertex="1">
          <mxGeometry y="90" width="140" height="30" as="geometry" />
        </mxCell>
        <mxCell id="xy2YS7yTcEFX0t7BhOpo-54" value="+GenerarRecetaEnPDF" style="text;strokeColor=none;fillColor=none;align=left;verticalAlign=middle;spacingLeft=4;spacingRight=4;overflow=hidden;points=[[0,0.5],[1,0.5]];portConstraint=eastwest;rotatable=0;whiteSpace=wrap;html=1;" parent="xy2YS7yTcEFX0t7BhOpo-42" vertex="1">
          <mxGeometry y="120" width="140" height="30" as="geometry" />
        </mxCell>
        <mxCell id="xy2YS7yTcEFX0t7BhOpo-52" value="+ModificarReceta" style="text;strokeColor=none;fillColor=none;align=left;verticalAlign=middle;spacingLeft=4;spacingRight=4;overflow=hidden;points=[[0,0.5],[1,0.5]];portConstraint=eastwest;rotatable=0;whiteSpace=wrap;html=1;" parent="xy2YS7yTcEFX0t7BhOpo-42" vertex="1">
          <mxGeometry y="150" width="140" height="30" as="geometry" />
        </mxCell>
        <mxCell id="xy2YS7yTcEFX0t7BhOpo-48" value="+DescargarReceta" style="text;strokeColor=none;fillColor=none;align=left;verticalAlign=middle;spacingLeft=4;spacingRight=4;overflow=hidden;points=[[0,0.5],[1,0.5]];portConstraint=eastwest;rotatable=0;whiteSpace=wrap;html=1;" parent="xy2YS7yTcEFX0t7BhOpo-42" vertex="1">
          <mxGeometry y="180" width="140" height="30" as="geometry" />
        </mxCell>
        <mxCell id="xy2YS7yTcEFX0t7BhOpo-49" value="" style="endArrow=none;html=1;rounded=0;exitX=0.5;exitY=0;exitDx=0;exitDy=0;entryX=0.5;entryY=0;entryDx=0;entryDy=0;startFill=0;" parent="1" source="xy2YS7yTcEFX0t7BhOpo-42" target="dPE6dNKuwwYWv2fvzeOf-7" edge="1">
          <mxGeometry width="50" height="50" relative="1" as="geometry">
            <mxPoint x="-580" y="520" as="sourcePoint" />
            <mxPoint x="-530" y="470" as="targetPoint" />
            <Array as="points">
              <mxPoint x="-600" y="-160" />
              <mxPoint x="390" y="-160" />
            </Array>
          </mxGeometry>
        </mxCell>
        <mxCell id="xy2YS7yTcEFX0t7BhOpo-50" value="" style="endArrow=none;html=1;rounded=0;exitX=1;exitY=0.5;exitDx=0;exitDy=0;entryX=0;entryY=0.5;entryDx=0;entryDy=0;startFill=0;" parent="1" target="dPE6dNKuwwYWv2fvzeOf-42" edge="1">
          <mxGeometry width="50" height="50" relative="1" as="geometry">
            <mxPoint x="-530" y="635" as="sourcePoint" />
            <mxPoint x="-450" y="450" as="targetPoint" />
            <Array as="points">
              <mxPoint x="-480" y="635" />
              <mxPoint x="-480" y="415" />
            </Array>
          </mxGeometry>
        </mxCell>
        <mxCell id="xy2YS7yTcEFX0t7BhOpo-53" value="" style="endArrow=none;html=1;rounded=0;exitX=0.5;exitY=0;exitDx=0;exitDy=0;startFill=0;" parent="1" source="dPE6dNKuwwYWv2fvzeOf-83" edge="1">
          <mxGeometry width="50" height="50" relative="1" as="geometry">
            <mxPoint x="640" y="1800" as="sourcePoint" />
            <mxPoint x="637" y="1670" as="targetPoint" />
          </mxGeometry>
        </mxCell>
        <mxCell id="xy2YS7yTcEFX0t7BhOpo-55" value="crea" style="text;html=1;align=center;verticalAlign=middle;whiteSpace=wrap;rounded=0;" parent="1" vertex="1">
          <mxGeometry x="-473" y="380" width="60" height="30" as="geometry" />
        </mxCell>
        <mxCell id="xy2YS7yTcEFX0t7BhOpo-56" value="descarga" style="text;html=1;align=center;verticalAlign=middle;whiteSpace=wrap;rounded=0;" parent="1" vertex="1">
          <mxGeometry x="50" y="-190" width="60" height="30" as="geometry" />
        </mxCell>
        <mxCell id="xy2YS7yTcEFX0t7BhOpo-57" value="crea" style="text;html=1;align=center;verticalAlign=middle;whiteSpace=wrap;rounded=0;" parent="1" vertex="1">
          <mxGeometry x="-210" y="1320" width="60" height="30" as="geometry" />
        </mxCell>
        <mxCell id="xy2YS7yTcEFX0t7BhOpo-58" value="puede visualizar" style="text;html=1;align=center;verticalAlign=middle;whiteSpace=wrap;rounded=0;" parent="1" vertex="1">
          <mxGeometry x="-240" y="-70" width="90" height="30" as="geometry" />
        </mxCell>
        <mxCell id="xy2YS7yTcEFX0t7BhOpo-60" value="1" style="text;html=1;align=center;verticalAlign=middle;whiteSpace=wrap;rounded=0;" parent="1" vertex="1">
          <mxGeometry x="460" y="130" width="60" height="30" as="geometry" />
        </mxCell>
        <mxCell id="xy2YS7yTcEFX0t7BhOpo-61" value="0..*" style="text;html=1;align=center;verticalAlign=middle;whiteSpace=wrap;rounded=0;" parent="1" vertex="1">
          <mxGeometry x="680" y="330" width="60" height="30" as="geometry" />
        </mxCell>
        <mxCell id="xy2YS7yTcEFX0t7BhOpo-62" value="1" style="text;html=1;align=center;verticalAlign=middle;whiteSpace=wrap;rounded=0;" parent="1" vertex="1">
          <mxGeometry x="680" y="741" width="60" height="30" as="geometry" />
        </mxCell>
        <mxCell id="xy2YS7yTcEFX0t7BhOpo-63" value="0..*" style="text;html=1;align=center;verticalAlign=middle;whiteSpace=wrap;rounded=0;" parent="1" vertex="1">
          <mxGeometry x="690" y="1065" width="60" height="30" as="geometry" />
        </mxCell>
        <mxCell id="xy2YS7yTcEFX0t7BhOpo-64" value="1" style="text;html=1;align=center;verticalAlign=middle;whiteSpace=wrap;rounded=0;" parent="1" vertex="1">
          <mxGeometry x="-290" y="520" width="60" height="30" as="geometry" />
        </mxCell>
        <mxCell id="xy2YS7yTcEFX0t7BhOpo-66" value="0..*" style="text;html=1;align=center;verticalAlign=middle;whiteSpace=wrap;rounded=0;" parent="1" vertex="1">
          <mxGeometry x="520" y="1320" width="60" height="30" as="geometry" />
        </mxCell>
        <mxCell id="xy2YS7yTcEFX0t7BhOpo-67" value="1" style="text;html=1;align=center;verticalAlign=middle;whiteSpace=wrap;rounded=0;" parent="1" vertex="1">
          <mxGeometry x="640" y="1670" width="60" height="30" as="geometry" />
        </mxCell>
        <mxCell id="xy2YS7yTcEFX0t7BhOpo-68" value="0..*" style="text;html=1;align=center;verticalAlign=middle;whiteSpace=wrap;rounded=0;" parent="1" vertex="1">
          <mxGeometry x="640" y="1810" width="60" height="30" as="geometry" />
        </mxCell>
        <mxCell id="xy2YS7yTcEFX0t7BhOpo-69" value="1" style="text;html=1;align=center;verticalAlign=middle;whiteSpace=wrap;rounded=0;" parent="1" vertex="1">
          <mxGeometry x="460" y="40" width="60" height="30" as="geometry" />
        </mxCell>
        <mxCell id="xy2YS7yTcEFX0t7BhOpo-70" value="0..*" style="text;html=1;align=center;verticalAlign=middle;whiteSpace=wrap;rounded=0;" parent="1" vertex="1">
          <mxGeometry x="950" y="805" width="60" height="30" as="geometry" />
        </mxCell>
        <mxCell id="xy2YS7yTcEFX0t7BhOpo-71" value="1" style="text;html=1;align=center;verticalAlign=middle;whiteSpace=wrap;rounded=0;" parent="1" vertex="1">
          <mxGeometry x="320" y="330" width="60" height="30" as="geometry" />
        </mxCell>
        <mxCell id="xy2YS7yTcEFX0t7BhOpo-72" value="0..*" style="text;html=1;align=center;verticalAlign=middle;whiteSpace=wrap;rounded=0;" parent="1" vertex="1">
          <mxGeometry x="320" y="800" width="60" height="30" as="geometry" />
        </mxCell>
        <mxCell id="xy2YS7yTcEFX0t7BhOpo-73" value="1" style="text;html=1;align=center;verticalAlign=middle;whiteSpace=wrap;rounded=0;" parent="1" vertex="1">
          <mxGeometry x="540" y="640" width="60" height="30" as="geometry" />
        </mxCell>
        <mxCell id="xy2YS7yTcEFX0t7BhOpo-74" value="0..*" style="text;html=1;align=center;verticalAlign=middle;whiteSpace=wrap;rounded=0;" parent="1" vertex="1">
          <mxGeometry x="440" y="790" width="60" height="30" as="geometry" />
        </mxCell>
        <mxCell id="xy2YS7yTcEFX0t7BhOpo-75" value="1" style="text;html=1;align=center;verticalAlign=middle;whiteSpace=wrap;rounded=0;" parent="1" vertex="1">
          <mxGeometry x="-225" y="530" width="60" height="30" as="geometry" />
        </mxCell>
        <mxCell id="xy2YS7yTcEFX0t7BhOpo-76" value="0..*" style="text;html=1;align=center;verticalAlign=middle;whiteSpace=wrap;rounded=0;" parent="1" vertex="1">
          <mxGeometry x="220" y="850" width="60" height="30" as="geometry" />
        </mxCell>
        <mxCell id="xy2YS7yTcEFX0t7BhOpo-77" value="1" style="text;html=1;align=center;verticalAlign=middle;whiteSpace=wrap;rounded=0;" parent="1" vertex="1">
          <mxGeometry x="-200" y="450" width="60" height="30" as="geometry" />
        </mxCell>
        <mxCell id="xy2YS7yTcEFX0t7BhOpo-78" value="1" style="text;html=1;align=center;verticalAlign=middle;whiteSpace=wrap;rounded=0;" parent="1" vertex="1">
          <mxGeometry x="-60" y="635" width="60" height="30" as="geometry" />
        </mxCell>
        <mxCell id="xy2YS7yTcEFX0t7BhOpo-79" value="1" style="text;html=1;align=center;verticalAlign=middle;whiteSpace=wrap;rounded=0;" parent="1" vertex="1">
          <mxGeometry x="260" y="250" width="60" height="30" as="geometry" />
        </mxCell>
        <mxCell id="xy2YS7yTcEFX0t7BhOpo-80" value="1" style="text;html=1;align=center;verticalAlign=middle;whiteSpace=wrap;rounded=0;" parent="1" vertex="1">
          <mxGeometry x="130" y="605" width="60" height="30" as="geometry" />
        </mxCell>
        <mxCell id="xy2YS7yTcEFX0t7BhOpo-81" value="1" style="text;html=1;align=center;verticalAlign=middle;whiteSpace=wrap;rounded=0;" parent="1" vertex="1">
          <mxGeometry x="-390" y="520" width="60" height="30" as="geometry" />
        </mxCell>
        <mxCell id="xy2YS7yTcEFX0t7BhOpo-82" value="0..*" style="text;html=1;align=center;verticalAlign=middle;whiteSpace=wrap;rounded=0;" parent="1" vertex="1">
          <mxGeometry x="-400" y="985" width="60" height="30" as="geometry" />
        </mxCell>
        <mxCell id="xy2YS7yTcEFX0t7BhOpo-83" value="" style="endArrow=none;html=1;rounded=0;exitX=0;exitY=0.5;exitDx=0;exitDy=0;startFill=0;" parent="1" source="xy2YS7yTcEFX0t7BhOpo-17" edge="1">
          <mxGeometry width="50" height="50" relative="1" as="geometry">
            <mxPoint x="360" y="1560" as="sourcePoint" />
            <mxPoint x="-600" y="773" as="targetPoint" />
            <Array as="points">
              <mxPoint x="-600" y="1535" />
            </Array>
          </mxGeometry>
        </mxCell>
        <mxCell id="xy2YS7yTcEFX0t7BhOpo-84" value="1" style="text;html=1;align=center;verticalAlign=middle;whiteSpace=wrap;rounded=0;" parent="1" vertex="1">
          <mxGeometry x="510" y="1500" width="60" height="30" as="geometry" />
        </mxCell>
        <mxCell id="xy2YS7yTcEFX0t7BhOpo-85" value="0..*" style="text;html=1;align=center;verticalAlign=middle;whiteSpace=wrap;rounded=0;" parent="1" vertex="1">
          <mxGeometry x="-600" y="780" width="60" height="30" as="geometry" />
        </mxCell>
        <mxCell id="xy2YS7yTcEFX0t7BhOpo-86" value="genera" style="text;html=1;align=center;verticalAlign=middle;whiteSpace=wrap;rounded=0;" parent="1" vertex="1">
          <mxGeometry x="220" y="1510" width="60" height="30" as="geometry" />
        </mxCell>
        <mxCell id="xy2YS7yTcEFX0t7BhOpo-87" value="0..*" style="text;html=1;align=center;verticalAlign=middle;whiteSpace=wrap;rounded=0;" parent="1" vertex="1">
          <mxGeometry x="-530" y="640" width="60" height="30" as="geometry" />
        </mxCell>
        <mxCell id="xy2YS7yTcEFX0t7BhOpo-89" value="1" style="text;html=1;align=center;verticalAlign=middle;whiteSpace=wrap;rounded=0;" parent="1" vertex="1">
          <mxGeometry x="-410" y="380" width="60" height="30" as="geometry" />
        </mxCell>
        <mxCell id="xy2YS7yTcEFX0t7BhOpo-90" value="1" style="text;html=1;align=center;verticalAlign=middle;whiteSpace=wrap;rounded=0;" parent="1" vertex="1">
          <mxGeometry x="330" y="-10" width="60" height="30" as="geometry" />
        </mxCell>
        <mxCell id="xy2YS7yTcEFX0t7BhOpo-91" value="1" style="text;html=1;align=center;verticalAlign=middle;whiteSpace=wrap;rounded=0;" parent="1" vertex="1">
          <mxGeometry x="-600" y="520" width="60" height="30" as="geometry" />
        </mxCell>
        <mxCell id="xy2YS7yTcEFX0t7BhOpo-93" value="1" style="text;html=1;align=center;verticalAlign=middle;whiteSpace=wrap;rounded=0;" parent="1" vertex="1">
          <mxGeometry x="-350" y="270" width="60" height="30" as="geometry" />
        </mxCell>
        <mxCell id="xy2YS7yTcEFX0t7BhOpo-94" value="0..*" style="text;html=1;align=center;verticalAlign=middle;whiteSpace=wrap;rounded=0;" parent="1" vertex="1">
          <mxGeometry x="1040" y="800" width="60" height="30" as="geometry" />
        </mxCell>
        <mxCell id="xy2YS7yTcEFX0t7BhOpo-95" value="1" style="text;html=1;align=center;verticalAlign=middle;whiteSpace=wrap;rounded=0;" parent="1" vertex="1">
          <mxGeometry x="-200" y="320" width="60" height="30" as="geometry" />
        </mxCell>
        <mxCell id="xy2YS7yTcEFX0t7BhOpo-96" value="0..*" style="text;html=1;align=center;verticalAlign=middle;whiteSpace=wrap;rounded=0;" parent="1" vertex="1">
          <mxGeometry x="250" width="60" height="30" as="geometry" />
        </mxCell>
        <mxCell id="xy2YS7yTcEFX0t7BhOpo-97" value="1" style="text;html=1;align=center;verticalAlign=middle;whiteSpace=wrap;rounded=0;" parent="1" vertex="1">
          <mxGeometry x="460" y="880" width="60" height="30" as="geometry" />
        </mxCell>
        <mxCell id="xy2YS7yTcEFX0t7BhOpo-98" value="0..*" style="text;html=1;align=center;verticalAlign=middle;whiteSpace=wrap;rounded=0;" parent="1" vertex="1">
          <mxGeometry x="870" y="880" width="60" height="30" as="geometry" />
        </mxCell>
      </root>
    </mxGraphModel>
  </diagram>
</mxfile>
